<?xml version='1.0' encoding='utf-8'?>
<!-- Generator: imaengine 6.0   -->
<svg xmlns:xlink="http://www.w3.org/1999/xlink" xmlns="http://www.w3.org/2000/svg" viewBox="0,0,1000,1000" style="enable-background:new 0 0 1000 1000;" version="1.1">
<defs/>
<g id="layer0">
<path d="M-1.64246e-05,1.29509e-06L1000,1.29509e-06L1000,1000L-1.64246e-05,1000L-1.64246e-05,1.29509e-06Z" fill="#0088FF"/>
</g>
<g id="layer1">
<path d="M102.963,686.793L899.55,686.793L899.55,543.791L782.398,361.129L219.189,358.199L102.813,545.378L102.963,686.793Z" stroke="#FFFFFF" stroke-width="29.6311" stroke-linecap="round" fill="none" stroke-linejoin="round"/>
</g>
<g id="layer2">
<path d="M107.904,546.811L894.459,546.811" stroke="#FFFFFF" stroke-width="22.2233" stroke-linecap="round" fill="none" stroke-linejoin="round"/>
</g>
<g id="layer3">
<path d="M159.217,686.216L159.217,794.966" stroke="#FFFFFF" stroke-width="25.764" stroke-linecap="round" fill="none" stroke-linejoin="round"/>
<path d="M843.145,686.216L843.145,794.966" stroke="#FFFFFF" stroke-width="25.764" stroke-linecap="round" fill="none" stroke-linejoin="round"/>
</g>
<g id="layer4">
<path d="M320.264,455.603L682.099,455.603" stroke="#FFFFFF" stroke-width="59.2622" stroke-linecap="round" fill="none" stroke-linejoin="round"/>
</g>
<g id="layer5">
<path d="M398.03,205.63L604.333,205.63C608.455,205.63 611.796,208.972 611.796,213.093L611.796,460.948C611.796,465.07 608.455,468.411 604.333,468.411L398.029,468.411C393.908,468.411 390.567,465.069 390.567,460.948L390.567,213.093C390.567,208.972 393.908,205.63 398.03,205.63Z" stroke="#FFFFFF" stroke-width="25.764" stroke-linecap="round" fill="#003666" stroke-linejoin="round"/>
</g>
<g id="layer6">
<path d="M550.034,288.079L482.778,375.819L450.531,339.234L439.716,353.317L484.575,404.188L484.609,404.148L484.642,404.188L562.647,302.406L550.034,288.079Z" fill="#FFFFFF"/>
</g>
</svg>
