<?xml version='1.0' encoding='utf-8'?>
<!-- Generator: imaengine 6.0   -->
<svg xmlns:xlink="http://www.w3.org/1999/xlink" xmlns="http://www.w3.org/2000/svg" viewBox="0,0,1000,1000" style="enable-background:new 0 0 1000 1000;" version="1.1">
<defs/>
<g id="layer0">
<path d="M-5.16366e-05,1.29509e-06L1000,1.29509e-06L1000,1000L-5.16366e-05,1000L-5.16366e-05,1.29509e-06Z" fill="#0088FF"/>
</g>
<g id="layer1">
<path d="M885.356,254.819C885.356,254.819 858.317,295.087 843.963,318.041C831.392,338.144 790.401,391.871 753.866,416.566C661.452,479.03 558.422,536.063 446.657,554.107C433.737,556.193 416.457,554.008 408.906,543.318C398.632,528.771 398.67,501.52 412.246,489.992C459.256,450.078 466.374,484.415 548.017,386.095C573.26,355.695 554.334,349.528 540.851,342.702C504.499,324.298 435.496,335.368 418.638,340.425C401.781,345.483 366.721,366.228 362.675,382.074C361.823,383.699 220.773,381.3 220.773,381.3C220.773,381.3 276.141,272.62 299.588,248.649C324.377,223.306 340.55,197.417 380.995,190.422C421.44,183.427 546.973,165.711 572.053,164.551C604.703,163.041 644.97,150.978 664.102,143.905C683.234,136.833 735.62,91.3605 735.62,91.3605L885.356,254.819Z" fill="#FFFFFF"/>
</g>
<g id="layer2">
<path d="M458.586,414.817L206.575,411.823L207.541,792.73L138.436,792.73L115.173,876.421C368.775,876.421 617.82,876.422 868.973,876.421L845.179,792.73L782.563,792.73L781.198,447.675L741.227,468.434L740.753,831.448C582.191,831.448 408.058,831.448 239.258,831.448L238.957,446.8L407.643,446.8L458.586,414.817Z" fill="#FFFFFF"/>
</g>
<g id="layer3">
<path d="M377.062,657.943L417.632,617.315L461.138,665.459L568.265,564.934L607.084,607.12L461.138,749.604L377.062,657.943Z" fill="#FFFFFF"/>
</g>
</svg>
